HIERARCHY
ROOT Hips
{
	OFFSET	0.00	0.00	0.00
	CHANNELS 6 Xposition Yposition Zposition Zrotation Xrotation Yrotation
	JOINT LeftHip
	{
		OFFSET	 3.430000	 0.000000	 0.000000
		CHANNELS 3 Zrotation Xrotation Yrotation
		JOINT LeftKnee
		{
			OFFSET	 0.000000	-18.469999	 0.000000
			CHANNELS 3 Zrotation Xrotation Yrotation
			JOINT LeftAnkle
			{
				OFFSET	 0.000000	-17.950001	 0.000000
				CHANNELS 3 Zrotation Xrotation Yrotation
				End Site 
				{
					OFFSET	 0.000000	-3.119996	 0.000000
				}
			}
		}
	}
	JOINT RightHip
	{
		OFFSET	-3.430000	 0.000000	 0.000000
		CHANNELS 3 Zrotation Xrotation Yrotation
		JOINT RightKnee
		{
			OFFSET	 0.000000	-18.809999	 0.000000
			CHANNELS 3 Zrotation Xrotation Yrotation
			JOINT RightAnkle
			{
				OFFSET	 0.000000	-17.570000	 0.000000
				CHANNELS 3 Zrotation Xrotation Yrotation
				End Site 
				{
					OFFSET	 0.000000	-3.250000	 0.000000
				}
			}
		}
	}
	JOINT Chest
	{
		OFFSET	 0.000000	 4.570000	 0.000000
		CHANNELS 3 Zrotation Xrotation Yrotation
		JOINT LeftCollar
		{
			OFFSET	 1.060000	 15.330000	 1.760000
			CHANNELS 3 Zrotation Xrotation Yrotation
			JOINT LeftShoulder
			{
				OFFSET	 5.810000	 0.000000	 0.000000
				CHANNELS 3 Zrotation Xrotation Yrotation
				JOINT LeftElbow
				{
					OFFSET	 0.000000	-12.080000	 0.000000
					CHANNELS 3 Zrotation Xrotation Yrotation
					JOINT LeftWrist
					{
						OFFSET	 0.000000	-9.820000	 0.000000
						CHANNELS 3 Zrotation Xrotation Yrotation
						End Site 
						{
							OFFSET	 0.000000	-7.369996	 0.000000
						}
					}
				}
			}
		}
		JOINT RightCollar
		{
			OFFSET	-1.060000	 15.330000	 1.760000
			CHANNELS 3 Zrotation Xrotation Yrotation
			JOINT RightShoulder
			{
				OFFSET	-6.060000	 0.000000	 0.000000
				CHANNELS 3 Zrotation Xrotation Yrotation
				JOINT RightElbow
				{
					OFFSET	 0.000000	-11.900000	 0.000000
					CHANNELS 3 Zrotation Xrotation Yrotation
					JOINT RightWrist
					{
						OFFSET	 0.000000	-9.520000	 0.000000
						CHANNELS 3 Zrotation Xrotation Yrotation
						End Site 
						{
							OFFSET	 0.000000	-7.140012	 0.000000
						}
					}
				}
			}
		}
		JOINT Neck
		{
			OFFSET	 0.000000	 17.620001	 0.000000
			CHANNELS 3 Zrotation Xrotation Yrotation
			JOINT Head
			{
				OFFSET	 0.000000	 5.190000	 0.000000
				CHANNELS 3 Zrotation Xrotation Yrotation
				End Site 
				{
					OFFSET	 0.000000	 4.140008	 0.000000
				}
			}
		}
	}
}

MOTION
Frames: 9
Frame Time: 0.033333
-40.4736 1.4722 -41.7185 -1.2697 0.398335 69.1831 20.5108 -15.2077 12.1819 -4.19498 15.3952 6.55239 -15.3701 5.85772 -1.80382 -10.4213 4.21034 -19.7515 0.732628 5.91712 1.19658 7.6041 -7.67022 -4.38804 8.44827 2.17467 -1.13762 0 0 0 -3.35348 -7.02421 -5.4599 -5.41934 -4.42546 -0.464485 20.4559 -19.9488 -8.85 0 0 0 -12.5837 -8.00121 0.271947 5.56621 -5.01641 7.24761 -17.438 -25.3982 15.3782 0 0 0 -1.15752 -12.3464 19.7279 
-40.4718 1.4731 -41.7142 -1.27348 0.414791 69.2213 20.4733 -15.2097 12.1457 -4.1807 15.373 6.54557 -15.3824 5.84853 -1.80017 -10.4336 4.22272 -19.775 0.732979 5.93243 1.18816 7.61066 -7.70451 -4.3897 8.44067 2.15862 -1.07706 0 0 0 -3.38292 -6.94667 -5.527 -5.3966 -4.41956 -0.45415 20.4744 -19.9312 -8.81034 0 0 0 -12.5845 -7.97172 0.264254 5.56807 -4.99481 7.27126 -17.4667 -25.4072 15.3315 0 0 0 -1.16163 -12.3366 19.7138 
-40.4707 1.4708 -41.7083 -1.27524 0.438134 69.2629 20.4262 -15.2202 12.1085 -4.16792 15.3566 6.53602 -15.3862 5.84866 -1.79294 -10.4543 4.22705 -19.8072 0.729979 5.95363 1.18781 7.60597 -7.73096 -4.38665 8.42909 2.15645 -1.02813 0 0 0 -3.3877 -6.88425 -5.56152 -5.37934 -4.42806 -0.448639 20.4971 -19.9217 -8.78978 0 0 0 -12.5753 -7.95632 0.264749 5.5646 -4.97572 7.30257 -17.4784 -25.4243 15.2975 0 0 0 -1.15771 -12.3224 19.6986 
-40.4698 1.4691 -41.7066 -1.27659 0.452067 69.2988 20.3936 -15.2289 12.0756 -4.16523 15.3375 6.53387 -15.3896 5.84917 -1.78902 -10.479 4.23058 -19.8302 0.741208 5.97522 1.18806 7.61111 -7.75489 -4.39719 8.42509 2.15577 -0.996605 0 0 0 -3.37598 -6.82997 -5.58174 -5.36906 -4.42497 -0.437504 20.5429 -19.914 -8.76432 0 0 0 -12.5689 -7.94811 0.273528 5.56539 -4.95946 7.33742 -17.4855 -25.44 15.2637 0 0 0 -1.1619 -12.3051 19.6765 
-40.4673 1.4666 -41.7041 -1.28232 0.488213 69.3766 20.3248 -15.2475 12.0108 -4.14954 15.3141 6.52297 -15.3975 5.83877 -1.78949 -10.5326 4.22671 -19.8696 0.758054 6.02153 1.18232 7.60987 -7.797 -4.41288 8.40266 2.14242 -0.924346 0 0 0 -3.3687 -6.72874 -5.62527 -5.33829 -4.41488 -0.423356 20.5962 -19.9037 -8.69804 0 0 0 -12.5498 -7.91709 0.306118 5.56415 -4.93214 7.3862 -17.5086 -25.4573 15.2015 0 0 0 -1.17003 -12.301 19.6451 
-40.4623 1.4641 -41.6991 -1.28585 0.511848 69.4461 20.2651 -15.2587 11.9488 -4.12811 15.2902 6.51174 -15.4073 5.83538 -1.78606 -10.589 4.20803 -19.8891 0.786518 6.09104 1.17111 7.61118 -7.84325 -4.44385 8.38718 2.13126 -0.857193 0 0 0 -3.31789 -6.61628 -5.64149 -5.29797 -4.39839 -0.407801 20.68 -19.9078 -8.61701 0 0 0 -12.5262 -7.88216 0.339306 5.56494 -4.90917 7.43623 -17.53 -25.4771 15.1229 0 0 0 -1.17493 -12.2811 19.6086 
-40.4573 1.4615 -41.6966 -1.28864 0.539484 69.5123 20.2062 -15.2693 11.8995 -4.12425 15.2673 6.5131 -15.4041 5.82213 -1.80371 -10.6537 4.17631 -19.9039 0.810914 6.17063 1.16726 7.61068 -7.87975 -4.48079 8.37265 2.11259 -0.815054 0 0 0 -3.22827 -6.53468 -5.60483 -5.2752 -4.37189 -0.413202 20.8045 -19.9167 -8.50535 0 0 0 -12.4941 -7.85032 0.389854 5.56199 -4.89251 7.48944 -17.5589 -25.5137 15.0414 0 0 0 -1.1771 -12.2633 19.5876 
-40.4498 1.4615 -41.6941 -1.30107 0.572232 69.5719 20.1455 -15.283 11.859 -4.11449 15.2412 6.4985 -15.4023 5.81624 -1.80258 -10.7181 4.14091 -19.9118 0.841448 6.22705 1.15089 7.60214 -7.90111 -4.50667 8.36018 2.08731 -0.782019 0 0 0 -3.0982 -6.46384 -5.51094 -5.26593 -4.35307 -0.440471 20.955 -19.9197 -8.37718 0 0 0 -12.4628 -7.82806 0.445653 5.55804 -4.86671 7.52689 -17.5705 -25.5355 14.989 0 0 0 -1.18005 -12.247 19.5614 
-40.4397 1.459 -41.6941 -1.30806 0.603695 69.6308 20.0875 -15.2995 11.806 -4.10849 15.2265 6.50188 -15.4023 5.80802 -1.80909 -10.793 4.09662 -19.9144 0.877242 6.29667 1.13736 7.59506 -7.91948 -4.5409 8.34358 2.07371 -0.773307 0 0 0 -2.95096 -6.4231 -5.39104 -5.26857 -4.35385 -0.475171 21.0938 -19.9298 -8.2612 0 0 0 -12.4327 -7.81509 0.510239 5.55126 -4.84789 7.55127 -17.5746 -25.5567 14.9485 0 0 0 -1.17646 -12.244 19.5451 
